<?xml version="1.0" standalone="no"?>
<!DOCTYPE svg PUBLIC "-//W3C//DTD SVG 20010904//EN"
 "http://www.w3.org/TR/2001/REC-SVG-20010904/DTD/svg10.dtd">
<svg version="1.0" xmlns="http://www.w3.org/2000/svg"
 width="254.000000pt" height="254.000000pt" viewBox="0 0 254.000000 254.000000"
 preserveAspectRatio="xMidYMid meet">
<metadata>
Created by potrace 1.14, written by Peter Selinger 2001-2017
</metadata>
<g transform="translate(0.000000,254.000000) scale(0.100000,-0.100000)"
fill="#000000" stroke="none">
<path d="M1302 2188 c-286 -22 -513 -183 -638 -452 -31 -68 -64 -174 -80 -256
-14 -74 -13 -364 2 -440 40 -211 119 -372 244 -498 66 -66 122 -105 214 -148
68 -31 105 -42 196 -60 39 -7 234 -8 265 -1 147 34 209 59 307 123 124 82 216
208 264 360 13 41 24 81 24 89 0 12 -20 15 -107 15 l-108 0 -18 -56 c-63 -199
-263 -333 -494 -332 -271 1 -487 178 -559 459 -22 85 -25 113 -28 240 -3 101
0 143 19 260 8 54 48 157 85 220 99 168 267 268 459 274 158 5 301 -46 400
-143 58 -57 112 -147 126 -209 l7 -33 109 0 c88 0 109 3 109 14 0 36 -53 177
-87 234 -66 109 -138 178 -263 254 -33 20 -130 56 -188 69 -80 19 -163 24
-260 17z"/>
<path d="M2249 1718 c-1 -13 -1 -25 -1 -28 4 -146 14 -376 18 -393 2 -12 6
-116 9 -231 3 -120 9 -214 15 -221 22 -27 68 -38 100 -25 31 13 56 65 46 97
-2 10 -8 45 -11 78 -4 33 -12 90 -19 127 -14 75 -6 102 38 131 25 17 49 77 40
101 -3 7 -6 45 -8 83 -3 91 -31 147 -115 234 -71 73 -110 90 -112 47z"/>
<path d="M70 1695 c-16 -19 -6 -304 11 -337 12 -24 47 -58 58 -58 4 0 14 -12
23 -27 16 -28 16 -29 4 -284 -1 -36 -6 -71 -10 -77 -4 -7 -4 -12 1 -12 4 0 8
-17 7 -37 -2 -54 4 -68 35 -86 69 -40 140 10 133 93 -1 8 -4 47 -8 85 -3 39
-7 86 -9 105 -3 19 -7 74 -11 121 l-6 87 48 48 49 48 0 145 c1 163 -4 195 -29
199 -35 7 -42 -13 -39 -119 3 -106 -5 -133 -35 -122 -26 10 -28 16 -31 120 -2
107 -15 138 -49 117 -14 -10 -17 -28 -17 -118 0 -94 -2 -109 -19 -118 -34 -19
-45 8 -48 121 -3 96 -5 104 -25 112 -14 5 -25 3 -33 -6z"/>
<path d="M1044 1680 c-17 -6 -18 -32 -18 -438 l-1 -432 53 0 52 0 0 340 c0
187 3 340 8 340 6 -1 174 -239 391 -557 l84 -123 52 0 53 0 -1 434 0 434 -26
4 c-14 1 -38 2 -52 0 l-25 -3 0 -325 c1 -179 -1 -332 -4 -340 -4 -11 -25 11
-65 70 -33 48 -83 119 -111 159 -28 40 -103 149 -168 242 -65 94 -124 176
-131 183 -14 15 -63 21 -91 12z"/>
</g>
</svg>
